<svg width="21" height="21" viewBox="0 0 21 21" fill="none" xmlns="http://www.w3.org/2000/svg">
<path fill-rule="evenodd" clip-rule="evenodd" d="M1.45287 15.6331C2.31416 17.1161 3.58019 18.3401 5.11191 19.1708C6.66975 20.0265 8.41896 20.4544 10.3595 20.4544C12.3001 20.4544 14.0443 20.0254 15.5922 19.1675C17.1204 18.3323 18.3853 17.1094 19.2512 15.6298C20.1412 14.1293 20.5862 12.4409 20.5862 10.5647C20.5862 8.68856 20.1412 6.99985 19.2512 5.4986C18.3845 4.0208 17.1197 2.79946 15.5922 1.96538C14.0443 1.10891 12.3001 0.68105 10.3595 0.681794C8.41896 0.682541 6.66975 1.1104 5.11191 1.96538C3.58095 2.79502 2.31502 4.01742 1.45287 5.4986C0.57212 7.00283 0.131744 8.69266 0.131744 10.5681C0.131744 12.4435 0.57212 14.1319 1.45287 15.6331ZM15.4492 13.7357C14.9708 14.6337 14.2449 15.3854 13.3522 15.907V15.9059C11.5017 16.9435 9.22074 16.9435 7.37023 15.9059C6.47759 15.3846 5.75196 14.6328 5.27441 13.7345C4.75431 12.756 4.4925 11.6677 4.5124 10.5669C4.4925 9.46622 4.75431 8.37788 5.27441 7.39935C5.75224 6.50101 6.47777 5.74894 7.37023 5.22687C9.22074 4.18931 11.5017 4.18931 13.3522 5.22687C14.2447 5.74919 14.9706 6.50117 15.4492 7.39935C15.9685 8.37849 16.2299 9.46711 16.21 10.5681C16.2298 11.6686 15.9684 12.7569 15.4492 13.7357Z" fill="#3BA1C4"/>
</svg>
